nColumns=19
nRows=144
DataType=double
version=3
OpenSimVersion=4.1
endheader
time	ground_force_calcn_r_vx	ground_force_calcn_r_vy	ground_force_calcn_r_vz	ground_force_calcn_r_px	ground_force_calcn_r_py	ground_force_calcn_r_pz	ground_force_calcn_r_mx	ground_force_calcn_r_my	ground_force_calcn_r_mz	ground_force_calcn_l_vx	ground_force_calcn_l_vy	ground_force_calcn_l_vz	ground_force_calcn_l_px	ground_force_calcn_l_py	ground_force_calcn_l_pz	ground_force_calcn_l_mx	ground_force_calcn_l_my	ground_force_calcn_l_mz
0.191667	0.624365	12.1252	-3.69743	0.972113	0	-0.177716	-0.218221	-4.23789	1.29229	0	0	0	0	0	0	0	0	0
0.2	-6.20444	24.5852	-9.63352	1.22412	0	-0.199439	0.644322	-2.55314	1.00043	0	0	0	0	0	0	0	0	0
0.208333	-25.2562	64.9796	-19.8996	1.37247	0	-0.245238	0.164328	-0.422788	0.129476	0	0	0	0	0	0	0	0	0
0.216667	-68.2189	171.25	-34.2939	1.4036	0	-0.257582	-0.86945	2.18258	-0.437076	0	0	0	0	0	0	0	0	0
0.225	-134.878	367.515	-50.1197	1.40439	0	-0.259802	-1.77288	4.83071	-0.658787	0	0	0	0	0	0	0	0	0
0.233333	-188.711	628.017	-61.7888	1.39044	0	-0.261577	-2.05559	6.84088	-0.673056	0	0	0	0	0	0	0	0	0
0.241667	-196.252	916.808	-62.5584	1.35741	0	-0.264829	-1.60459	7.49598	-0.511488	0	0	0	0	0	0	0	0	0
0.25	-188.983	1210.26	-47.5759	1.31497	0	-0.269448	-0.984713	6.30615	-0.247899	0	0	0	0	0	0	0	0	0
0.258333	-204.376	1465.78	-17.8076	1.27831	0	-0.273766	-0.506842	3.63507	-0.0441621	0	0	0	0	0	0	0	0	0
0.266667	-229.241	1655.8	16.7677	1.24859	0	-0.276766	-0.0544012	0.392938	0.00397914	0	0	0	0	0	0	0	0	0
0.275	-231.807	1790.95	41.3344	1.21895	0	-0.279042	0.320992	-2.47999	-0.0572373	0	0	0	0	0	0	0	0	0
0.283333	-193.802	1890.63	48.0368	1.18496	0	-0.281111	0.444626	-4.33753	-0.110207	0	0	0	0	0	0	0	0	0
0.291667	-130.53	1956.78	42.3948	1.14907	0	-0.282652	0.330048	-4.94776	-0.107196	0	0	0	0	0	0	0	0	0
0.3	-65.7382	1980.95	35.8307	1.11451	0	-0.283111	0.149339	-4.50016	-0.0813974	0	0	0	0	0	0	0	0	0
0.308333	-0.277169	1956.39	33.6721	1.08032	0	-0.282666	0.000490414	-3.46158	-0.0595784	0	0	0	0	0	0	0	0	0
0.316667	72.6751	1875.81	33.1112	1.04496	0	-0.28242	-0.0903651	-2.3324	-0.0411709	0	0	0	0	0	0	0	0	0
0.325	153.347	1735.79	31.0619	1.00795	0	-0.283101	-0.130948	-1.48225	-0.0265247	0	0	0	0	0	0	0	0	0
0.333333	228.283	1544.94	29.0779	0.970235	0	-0.28426	-0.159535	-1.07967	-0.020321	0	0	0	0	0	0	0	0	0
0.341667	278.692	1319.23	29.5023	0.93392	0	-0.284884	-0.229444	-1.08611	-0.024289	0	0	0	0	0	0	0	0	0
0.35	296.621	1072	30.5728	0.899957	0	-0.284691	-0.364031	-1.31563	-0.0375209	0	0	0	0	0	0	0	0	0
0.358333	281.235	816.172	28.1587	0.868419	0	-0.284303	-0.53381	-1.54917	-0.0534478	0	0	0	0	0	0	0	0	0
0.366667	239.642	573.256	21.1215	0.838892	0	-0.284141	-0.684511	-1.63744	-0.0603312	0	0	0	0	0	0	0	0	0
0.375	183.256	365.306	12.5957	0.812568	0	-0.283843	-0.772744	-1.54041	-0.0531129	0	0	0	0	0	0	0	0	0
0.383333	125.202	206.825	6.21532	0.792716	0	-0.282014	-0.784906	-1.29661	-0.0389645	0	0	0	0	0	0	0	0	0
0.391667	75.6056	103.046	2.8316	0.788046	0	-0.275472	-0.723763	-0.986448	-0.0271066	0	0	0	0	0	0	0	0	0
0.4	38.8555	45.6409	1.16792	0.828672	0	-0.260566	-0.60568	-0.711452	-0.0182056	0	0	0	0	0	0	0	0	0
0.408333	15.9258	19.0427	0.167688	0.961282	0	-0.229194	-0.466397	-0.557679	-0.00491086	0	0	0	0	0	0	0	0	0
0.416667	0	0	0	0	0	0	0	0	0	0	0	0	0	0	0	0	0	0
0.425	0	0	0	0	0	0	0	0	0	0	0	0	0	0	0	0	0	0
0.433333	0	0	0	0	0	0	0	0	0	0	0	0	0	0	0	0	0	0
0.441667	0	0	0	0	0	0	0	0	0	0	0	0	0	0	0	0	0	0
0.45	0	0	0	0	0	0	0	0	0	0	0	0	0	0	0	0	0	0
0.458333	0	0	0	0	0	0	0	0	0	0	0	0	0	0	0	0	0	0
0.466667	0	0	0	0	0	0	0	0	0	0	0	0	0	0	0	0	0	0
0.475	0	0	0	0	0	0	0	0	0	0	0	0	0	0	0	0	0	0
0.483333	0	0	0	0	0	0	0	0	0	0	0	0	0	0	0	0	0	0
0.491667	0	0	0	0	0	0	0	0	0	0	0	0	0	0	0	0	0	0
0.5	0	0	0	0	0	0	0	0	0	0	0	0	0	0	0	0	0	0
0.508333	0	0	0	0	0	0	0	0	0	0	0	0	0	0	0	0	0	0
0.516667	0	0	0	0	0	0	0	0	0	0	0	0	0	0	0	0	0	0
0.525	0	0	0	0	0	0	0	0	0	-0.0194583	15.5456	-0.628623	1.33678	0	-0.302937	-0.00332626	2.65741	-0.107459
0.533333	0	0	0	0	0	0	0	0	0	-12.3311	45.81	0.066663	1.36319	0	-0.361096	-0.321223	1.19334	0.00173655
0.541667	0	0	0	0	0	0	0	0	0	-43.9064	130.246	5.68087	1.37376	0	-0.362904	0.268199	-0.795599	-0.0347012
0.55	0	0	0	0	0	0	0	0	0	-101.931	301.754	19.6686	1.37597	0	-0.359276	1.02507	-3.03459	-0.197797
0.558333	0	0	0	0	0	0	0	0	0	-166.299	550.005	41.1214	1.36924	0	-0.353591	1.52126	-5.0313	-0.376168
0.566667	0	0	0	0	0	0	0	0	0	-196.59	830.585	60.3097	1.34542	0	-0.347929	1.44429	-6.10205	-0.443077
0.575	0	0	0	0	0	0	0	0	0	-193.203	1122.67	62.7916	1.30465	0	-0.343256	0.951713	-5.53023	-0.30931
0.583333	0	0	0	0	0	0	0	0	0	-191.052	1405.91	42.2421	1.26276	0	-0.339503	0.423574	-3.11699	-0.0936534
0.591667	0	0	0	0	0	0	0	0	0	-192.114	1645.04	7.1794	1.2281	0	-0.335864	-0.0689225	0.590172	0.00257567
0.6	0	0	0	0	0	0	0	0	0	-175.272	1824.36	-26.6449	1.19617	0	-0.332407	-0.447675	4.65972	-0.0680554
0.608333	0	0	0	0	0	0	0	0	0	-132.256	1945.67	-47.7021	1.1627	0	-0.329744	-0.554464	8.15694	-0.199984
0.616667	0	0	0	0	0	0	0	0	0	-74.7018	2009.75	-53.4054	1.12912	0	-0.328011	-0.387772	10.4325	-0.277224
0.625	0	0	0	0	0	0	0	0	0	-18.9304	2016.61	-48.5296	1.09808	0	-0.327009	-0.106094	11.3019	-0.271979
0.633333	0	0	0	0	0	0	0	0	0	34.5066	1970.96	-40.8746	1.0687	0	-0.326247	0.192955	11.0213	-0.228564
0.641667	0	0	0	0	0	0	0	0	0	87.4152	1876.85	-36.3833	1.03941	0	-0.325343	0.469176	10.0734	-0.195277
0.65	0	0	0	0	0	0	0	0	0	132.083	1732.84	-36.3148	1.01077	0	-0.324085	0.680733	8.93076	-0.18716
0.658333	0	0	0	0	0	0	0	0	0	165.154	1538.84	-38.4738	0.983116	0	-0.322204	0.845912	7.88188	-0.197062
0.666667	0	0	0	0	0	0	0	0	0	190.831	1301.03	-40.5205	0.954619	0	-0.319816	1.02223	6.96923	-0.217057
0.675	0	0	0	0	0	0	0	0	0	212.265	1032.38	-41.2636	0.921739	0	-0.317475	1.24238	6.04249	-0.241514
0.683333	0	0	0	0	0	0	0	0	0	218.701	758.13	-39.5898	0.88383	0	-0.315455	1.41717	4.91264	-0.25654
0.691667	0	0	0	0	0	0	0	0	0	195.377	513.062	-34.1746	0.84713	0	-0.313636	1.35157	3.54925	-0.236412
0.7	0	0	0	0	0	0	0	0	0	146.54	320.505	-25.293	0.822935	0	-0.31152	0.961947	2.10392	-0.166033
0.708333	0	0	0	0	0	0	0	0	0	91.8058	183.903	-15.9377	0.822411	0	-0.307744	0.370016	0.741206	-0.0642357
0.716667	0	0	0	0	0	0	0	0	0	49.5101	94.5514	-9.49653	0.837543	0	-0.30337	-0.223173	-0.426201	0.0428067
0.725	0	0	0	0	0	0	0	0	0	25.0828	41.3437	-6.4298	0.829331	0	-0.308594	-0.716631	-1.18121	0.183703
0.733333	0	0	0	0	0	0	0	0	0	12.2944	15.0489	-4.45214	0.792502	0	-0.333619	-1.03107	-1.26208	0.373379
0.741667	0	0	0	0	0	0	0	0	0	0	0	0	0	0	0	0	0	0
0.75	0	0	0	0	0	0	0	0	0	0	0	0	0	0	0	0	0	0
0.758333	0	0	0	0	0	0	0	0	0	0	0	0	0	0	0	0	0	0
0.766667	0	0	0	0	0	0	0	0	0	0	0	0	0	0	0	0	0	0
0.775	0	0	0	0	0	0	0	0	0	0	0	0	0	0	0	0	0	0
0.783333	0	0	0	0	0	0	0	0	0	0	0	0	0	0	0	0	0	0
0.791667	0	0	0	0	0	0	0	0	0	0	0	0	0	0	0	0	0	0
0.8	0	0	0	0	0	0	0	0	0	0	0	0	0	0	0	0	0	0
0.808333	0	0	0	0	0	0	0	0	0	0	0	0	0	0	0	0	0	0
0.816667	0	0	0	0	0	0	0	0	0	0	0	0	0	0	0	0	0	0
0.825	0	0	0	0	0	0	0	0	0	0	0	0	0	0	0	0	0	0
0.833333	0	0	0	0	0	0	0	0	0	0	0	0	0	0	0	0	0	0
0.841667	0	0	0	0	0	0	0	0	0	0	0	0	0	0	0	0	0	0
0.85	-4.27311	19.0286	-8.03579	1.33633	0	-0.188281	0.471694	-2.1005	0.887044	0	0	0	0	0	0	0	0	0
0.858333	-21.8267	58.9297	-17.7708	1.38575	0	-0.269528	-0.0134501	0.036314	-0.0109508	0	0	0	0	0	0	0	0	0
0.866667	-67.134	161.345	-30.1826	1.38317	0	-0.287723	-1.05748	2.54148	-0.475431	0	0	0	0	0	0	0	0	0
0.875	-140.695	343.046	-42.1441	1.38468	0	-0.291119	-1.99705	4.86928	-0.598204	0	0	0	0	0	0	0	0	0
0.883333	-200.933	574.764	-48.771	1.37547	0	-0.293338	-2.27287	6.50149	-0.551676	0	0	0	0	0	0	0	0	0
0.891667	-206.264	827.532	-44.9794	1.34261	0	-0.296575	-1.69668	6.80711	-0.369991	0	0	0	0	0	0	0	0	0
0.9	-186.18	1103.26	-26.9261	1.29596	0	-0.301097	-0.878246	5.2043	-0.127016	0	0	0	0	0	0	0	0	0
0.908333	-182.734	1382.23	6.09484	1.2546	0	-0.305727	-0.267902	2.02646	0.00893552	0	0	0	0	0	0	0	0	0
0.916667	-188.385	1624.34	47.4394	1.22157	0	-0.309322	0.205175	-1.76911	-0.0516674	0	0	0	0	0	0	0	0	0
0.925	-179.059	1805.61	82.6997	1.1907	0	-0.311942	0.512072	-5.16367	-0.236504	0	0	0	0	0	0	0	0	0
0.933333	-142.478	1926.47	99.1007	1.1577	0	-0.313916	0.546818	-7.39362	-0.380339	0	0	0	0	0	0	0	0	0
0.941667	-87.5763	1993.33	96.2105	1.12434	0	-0.31543	0.357855	-8.14514	-0.393136	0	0	0	0	0	0	0	0	0
0.95	-29.6213	2011.57	84.9311	1.09346	0	-0.316124	0.111932	-7.60127	-0.320936	0	0	0	0	0	0	0	0	0
0.958333	28.8391	1987.94	75.9021	1.0639	0	-0.315636	-0.0912423	-6.28951	-0.240142	0	0	0	0	0	0	0	0	0
0.966667	86.7496	1921.93	71.1816	1.03418	0	-0.314612	-0.216635	-4.79952	-0.177758	0	0	0	0	0	0	0	0	0
0.975	140.099	1805.52	67.2363	1.00458	0	-0.314037	-0.276103	-3.55824	-0.132507	0	0	0	0	0	0	0	0	0
0.983333	183.047	1634.51	62.1559	0.975693	0	-0.314147	-0.3062	-2.7342	-0.103974	0	0	0	0	0	0	0	0	0
0.991667	211.898	1414.08	57.0244	0.946968	0	-0.314342	-0.3382	-2.25695	-0.091014	0	0	0	0	0	0	0	0	0
1	229.987	1155.18	51.8457	0.915645	0	-0.313961	-0.380184	-1.90959	-0.0857044	0	0	0	0	0	0	0	0	0
1.00833	235.922	875.376	43.8539	0.879575	0	-0.313262	-0.395046	-1.4658	-0.0734325	0	0	0	0	0	0	0	0	0
1.01667	222.626	608.049	31.3814	0.841747	0	-0.312728	-0.302949	-0.827432	-0.0427037	0	0	0	0	0	0	0	0	0
1.025	185.79	385.286	17.4095	0.810864	0	-0.311889	-0.0411665	-0.0853696	-0.0038575	0	0	0	0	0	0	0	0	0
1.03333	133.409	221.091	7.12851	0.795477	0	-0.307671	0.346664	0.574503	0.0185234	0	0	0	0	0	0	0	0	0
1.04167	80.6596	115.226	2.63848	0.799327	0	-0.291175	0.725524	1.03645	0.0237329	0	0	0	0	0	0	0	0	0
1.05	39.831	55.404	1.62596	0.812896	0	-0.249452	0.962295	1.33853	0.0392822	0	0	0	0	0	0	0	0	0
1.05833	15.1447	23.9304	0.835503	0.814446	0	-0.170877	0.980378	1.54912	0.0540856	0	0	0	0	0	0	0	0	0
1.06667	0	0	0	0	0	0	0	0	0	0	0	0	0	0	0	0	0	0
1.075	0	0	0	0	0	0	0	0	0	0	0	0	0	0	0	0	0	0
1.08333	0	0	0	0	0	0	0	0	0	0	0	0	0	0	0	0	0	0
1.09167	0	0	0	0	0	0	0	0	0	0	0	0	0	0	0	0	0	0
1.1	0	0	0	0	0	0	0	0	0	0	0	0	0	0	0	0	0	0
1.10833	0	0	0	0	0	0	0	0	0	0	0	0	0	0	0	0	0	0
1.11667	0	0	0	0	0	0	0	0	0	0	0	0	0	0	0	0	0	0
1.125	0	0	0	0	0	0	0	0	0	0	0	0	0	0	0	0	0	0
1.13333	0	0	0	0	0	0	0	0	0	0	0	0	0	0	0	0	0	0
1.14167	0	0	0	0	0	0	0	0	0	0	0	0	0	0	0	0	0	0
1.15	0	0	0	0	0	0	0	0	0	0	0	0	0	0	0	0	0	0
1.15833	0	0	0	0	0	0	0	0	0	0	0	0	0	0	0	0	0	0
1.16667	0	0	0	0	0	0	0	0	0	0	0	0	0	0	0	0	0	0
1.175	0	0	0	0	0	0	0	0	0	0	0	0	0	0	0	0	0	0
1.18333	0	0	0	0	0	0	0	0	0	-6.35453	19.7545	0.661422	1.31415	0	-0.312246	-0.435038	1.35242	0.0452817
1.19167	0	0	0	0	0	0	0	0	0	-18.3733	60.4468	2.59367	1.34971	0	-0.350503	0.204853	-0.673951	-0.0289181
1.2	0	0	0	0	0	0	0	0	0	-53.6112	164.922	10.6043	1.35392	0	-0.356163	1.03743	-3.1914	-0.205204
1.20833	0	0	0	0	0	0	0	0	0	-115.078	350.186	27.0111	1.35499	0	-0.352667	1.86493	-5.67503	-0.437736
1.21667	0	0	0	0	0	0	0	0	0	-170.419	583.818	46.98	1.34664	0	-0.347348	2.2186	-7.60044	-0.611609
1.225	0	0	0	0	0	0	0	0	0	-181.921	827.213	57.7357	1.3181	0	-0.342939	1.82437	-8.29557	-0.578993
1.23333	0	0	0	0	0	0	0	0	0	-168.638	1080.23	48.0096	1.27479	0	-0.340069	1.10162	-7.05661	-0.313622
1.24167	0	0	0	0	0	0	0	0	0	-165.718	1333.08	19.6356	1.23475	0	-0.33751	0.48214	-3.87845	-0.0571278
1.25	0	0	0	0	0	0	0	0	0	-164.576	1557.58	-14.4645	1.20191	0	-0.333875	-0.0567077	0.536694	-0.00498402
1.25833	0	0	0	0	0	0	0	0	0	-140.88	1739.88	-43.2584	1.16926	0	-0.329801	-0.42561	5.25634	-0.130687
1.26667	0	0	0	0	0	0	0	0	0	-89.5634	1874.08	-63.7016	1.13407	0	-0.326525	-0.448964	9.3944	-0.319324
1.275	0	0	0	0	0	0	0	0	0	-27.9506	1948.14	-76.0743	1.09989	0	-0.324509	-0.176401	12.2951	-0.480117
1.28333	0	0	0	0	0	0	0	0	0	26.6258	1956.67	-80.1279	1.06917	0	-0.323301	0.186349	13.6943	-0.560799
1.29167	0	0	0	0	0	0	0	0	0	77.0587	1907.2	-77.1998	1.04006	0	-0.321963	0.554112	13.7143	-0.555126
1.3	0	0	0	0	0	0	0	0	0	127.142	1805.97	-71.8553	1.0109	0	-0.320175	0.894915	12.7117	-0.505768
1.30833	0	0	0	0	0	0	0	0	0	171.866	1651.35	-68.419	0.981985	0	-0.318277	1.156	11.1073	-0.460198
1.31667	0	0	0	0	0	0	0	0	0	206.408	1443.76	-66.9637	0.952912	0	-0.316429	1.3202	9.23444	-0.428306
1.325	0	0	0	0	0	0	0	0	0	230.098	1193.56	-64.1494	0.920963	0	-0.314553	1.40151	7.26989	-0.390731
1.33333	0	0	0	0	0	0	0	0	0	240.685	922.139	-57.2776	0.883681	0	-0.312703	1.37832	5.28077	-0.328009
1.34167	0	0	0	0	0	0	0	0	0	225.867	659.578	-46.675	0.844652	0	-0.311097	1.14886	3.3549	-0.23741
1.35	0	0	0	0	0	0	0	0	0	182.439	434.342	-34.8137	0.813171	0	-0.310204	0.683726	1.62778	-0.130471
1.35833	0	0	0	0	0	0	0	0	0	126.851	262.599	-24.2913	0.799466	0	-0.309934	0.0951232	0.196918	-0.0182155
1.36667	0	0	0	0	0	0	0	0	0	77.7997	144.86	-16.4643	0.80516	0	-0.309616	-0.472271	-0.879354	0.0999443
1.375	0	0	0	0	0	0	0	0	0	44.0886	72.4925	-11.0578	0.805964	0	-0.308518	-0.925024	-1.52097	0.232003
1.38333	0	0	0	0	0	0	0	0	0	22.247	33.9409	-6.88107	0.779343	0	-0.299727	-1.16163	-1.77222	0.359295
